<svg width="24" height="24" xmlns="http://www.w3.org/2000/svg">

 <g>
  <title>Layer 1</title>
  <path fill="#9c69e2" id="svg_1" d="m7,0l-3,0a4,4 0 0 0 -4,4l0,3a4,4 0 0 0 4,4l3,0a4,4 0 0 0 4,-4l0,-3a4,4 0 0 0 -4,-4zm2,7a2,2 0 0 1 -2,2l-3,0a2,2 0 0 1 -2,-2l0,-3a2,2 0 0 1 2,-2l3,0a2,2 0 0 1 2,2l0,3z"/>
  <path fill="#f063b8" id="svg_2" d="m20,0l-3,0a4,4 0 0 0 -4,4l0,3a4,4 0 0 0 4,4l3,0a4,4 0 0 0 4,-4l0,-3a4,4 0 0 0 -4,-4zm2,7a2,2 0 0 1 -2,2l-3,0a2,2 0 0 1 -2,-2l0,-3a2,2 0 0 1 2,-2l3,0a2,2 0 0 1 2,2l0,3z"/>
  <path fill="#f063b8" id="svg_3" d="m7,13l-3,0a4,4 0 0 0 -4,4l0,3a4,4 0 0 0 4,4l3,0a4,4 0 0 0 4,-4l0,-3a4,4 0 0 0 -4,-4zm2,7a2,2 0 0 1 -2,2l-3,0a2,2 0 0 1 -2,-2l0,-3a2,2 0 0 1 2,-2l3,0a2,2 0 0 1 2,2l0,3z"/>
  <path fill="#9c69e2" id="svg_4" d="m20,13l-3,0a4,4 0 0 0 -4,4l0,3a4,4 0 0 0 4,4l3,0a4,4 0 0 0 4,-4l0,-3a4,4 0 0 0 -4,-4zm2,7a2,2 0 0 1 -2,2l-3,0a2,2 0 0 1 -2,-2l0,-3a2,2 0 0 1 2,-2l3,0a2,2 0 0 1 2,2l0,3z"/>
 </g>
</svg>